<?xml version="1.0" standalone="no"?>
<!DOCTYPE svg PUBLIC "-//W3C//DTD SVG 20010904//EN"
 "http://www.w3.org/TR/2001/REC-SVG-20010904/DTD/svg10.dtd">
<svg version="1.0" xmlns="http://www.w3.org/2000/svg"
 width="1080.000000pt" height="1080.000000pt" viewBox="0 0 1080.000000 1080.000000"
 preserveAspectRatio="xMidYMid meet">
<metadata>
Created by potrace 1.16, written by Peter Selinger 2001-2019
</metadata>
<g transform="translate(0.000000,1080.000000) scale(0.100000,-0.100000)"
fill="#000000" stroke="none">
<path d="M0 5400 l0 -5400 5400 0 5400 0 0 5400 0 5400 -5400 0 -5400 0 0
-5400z m5645 3580 c714 -49 1353 -285 1920 -710 450 -337 816 -762 1052 -1220
192 -374 296 -705 359 -1146 25 -176 30 -577 9 -774 -43 -425 -138 -768 -318
-1150 -92 -196 -282 -507 -390 -640 -7 -8 -30 -37 -52 -65 -22 -27 -42 -52
-45 -55 -3 -3 -23 -27 -45 -55 -77 -97 -273 -287 -287 -279 -7 4 -10 3 -5 -1
7 -8 -50 -75 -64 -75 -4 0 -23 -15 -42 -32 -90 -84 -87 -82 -105 -64 -15 15
-14 17 16 28 18 7 35 20 38 30 6 20 20 24 27 8 3 -6 4 -5 3 2 -2 7 -11 12 -20
12 -9 -1 -16 2 -16 7 0 5 -8 9 -17 9 -16 0 -16 -2 -3 -11 12 -9 12 -10 -3 -5
-10 3 -23 6 -29 6 -6 0 -6 6 2 15 11 13 8 15 -15 15 -19 0 -26 -4 -22 -14 4
-10 -1 -12 -16 -9 -14 3 -18 1 -10 -4 20 -15 -10 -42 -45 -41 -38 1 -50 -8
-33 -25 9 -9 14 -9 22 3 9 12 10 12 7 1 -6 -21 -21 -23 -43 -7 -16 12 -17 16
-6 30 7 9 20 16 27 16 8 0 14 4 14 8 0 4 23 25 51 47 29 22 64 51 78 65 81 76
235 227 297 292 380 393 705 1025 818 1588 55 279 61 344 61 680 0 278 -3 332
-23 460 -76 481 -242 925 -489 1309 -178 275 -439 571 -688 778 -151 125 -388
287 -555 380 -127 71 -151 83 -270 135 -506 224 -1039 321 -1582 290 -353 -21
-523 -53 -930 -178 -208 -64 -597 -260 -818 -413 -178 -123 -302 -221 -424
-338 -46 -44 -60 -53 -68 -42 -8 11 -9 11 -5 -3 4 -11 -21 -44 -76 -102 l-82
-86 -1 44 c-2 37 1 43 14 39 12 -5 14 -2 9 11 -6 14 -3 16 16 12 12 -3 17 -3
10 0 -17 8 -4 34 17 34 14 0 17 6 13 23 -4 18 -3 19 6 7 15 -21 30 2 23 36 -3
19 -9 24 -23 21 -20 -6 -24 9 -9 33 6 9 5 17 -2 21 -8 5 1 20 25 44 22 22 41
34 48 29 7 -4 9 -3 6 2 -8 14 -2 21 108 116 261 224 653 462 1000 606 467 194
1052 287 1580 252z m-17 -523 c15 -12 164 -217 257 -355 54 -80 71 -99 76 -85
4 10 15 87 25 171 20 167 18 176 -32 202 -30 15 -46 31 -39 38 2 2 58 -4 124
-14 82 -13 121 -23 121 -31 0 -8 -12 -13 -30 -13 -32 0 -79 -37 -81 -62 0 -7
-15 -128 -32 -268 l-32 -255 -35 3 c-19 2 -36 5 -36 5 -1 1 -77 115 -169 252
-92 138 -175 258 -185 268 -17 18 -17 17 -23 -20 -13 -84 -28 -291 -25 -338 3
-48 5 -51 48 -73 63 -31 65 -47 5 -39 -26 4 -86 7 -132 7 -62 0 -84 3 -81 12
3 7 19 16 36 20 52 14 60 38 82 244 23 220 26 291 16 301 -4 5 -21 13 -39 19
-17 6 -33 16 -35 23 -5 15 196 4 216 -12z m-438 1 c-1 -7 -15 -22 -32 -33 -54
-35 -54 -39 -25 -222 32 -196 33 -215 8 -268 -43 -96 -162 -150 -319 -143 -76
3 -94 7 -130 30 -65 44 -89 95 -128 284 -20 93 -40 176 -45 186 -5 10 -20 18
-32 18 -12 0 -29 4 -37 10 -19 12 -18 12 140 45 69 14 135 28 148 32 34 8 28
-20 -8 -34 -44 -17 -46 -47 -16 -217 30 -171 60 -247 103 -269 82 -43 186 -25
247 43 34 37 36 44 36 106 0 85 -38 322 -56 352 -9 14 -24 22 -42 22 -30 0
-60 15 -50 25 5 5 117 26 231 44 4 0 7 -5 7 -11z m1351 -179 c189 -74 256
-110 322 -168 128 -116 131 -297 7 -421 -64 -64 -118 -85 -220 -84 -67 1 -99
7 -155 28 -38 15 -131 49 -205 75 -134 48 -170 71 -111 71 73 0 95 30 166 225
18 50 44 118 59 152 35 84 34 116 -4 143 -29 20 -39 40 -22 40 4 0 78 -27 163
-61z m-2292 -152 c144 -67 213 -260 142 -397 -48 -94 -125 -152 -250 -190
-140 -43 -267 -6 -345 100 -98 133 -84 267 42 395 109 111 287 150 411 92z
m3140 -316 c51 -26 142 -115 188 -183 29 -43 35 -47 63 -42 20 5 30 3 30 -6 0
-13 -111 -148 -122 -149 -5 -1 -8 33 -8 74 0 60 -5 85 -24 123 -39 76 -109
132 -166 132 -41 0 -53 -7 -69 -37 -16 -31 2 -71 75 -169 114 -155 137 -236
88 -310 -39 -60 -76 -79 -154 -79 -109 0 -196 56 -296 191 -52 72 -56 74 -96
74 l-42 0 43 43 c24 23 55 59 69 80 38 56 48 48 44 -33 -5 -81 14 -130 80
-204 68 -78 130 -96 183 -54 44 35 32 85 -47 200 -92 131 -112 173 -112 235 0
61 20 95 74 125 46 25 138 20 199 -11z m-3821 -112 c17 -13 40 -46 52 -73 42
-95 11 -179 -111 -298 -44 -42 -79 -81 -79 -85 1 -11 108 -123 118 -123 5 0
27 13 48 28 22 16 45 27 52 24 17 -5 15 -22 -3 -22 -28 0 -245 -235 -245 -265
0 -8 -4 -15 -10 -15 -17 0 -11 25 15 72 23 41 23 46 9 72 -19 37 -61 85 -197
224 -116 117 -137 129 -189 101 -37 -20 -29 -2 24 53 29 30 81 86 116 125 73
82 150 146 225 186 64 35 128 34 175 -4z m2192 -134 c387 -55 673 -159 937
-341 230 -158 372 -316 470 -522 114 -237 140 -477 78 -717 -117 -456 -492
-824 -1050 -1031 -186 -69 -415 -121 -555 -126 l-65 -3 -3 52 c-3 48 -1 53 20
57 13 2 63 12 112 21 98 18 231 62 318 105 302 149 535 472 615 850 26 121 26
450 0 570 -27 126 -54 203 -109 315 -81 162 -157 258 -290 369 -145 120 -345
212 -560 257 -130 27 -399 37 -560 20 -229 -24 -478 -92 -672 -184 -173 -82
-391 -232 -503 -345 -257 -260 -390 -501 -434 -790 -13 -88 -33 -104 -24 -19
14 122 36 265 46 297 25 81 93 248 115 282 13 21 24 40 24 43 0 11 80 118 159
215 75 90 194 198 321 291 54 40 224 137 293 169 161 73 431 149 602 169 50 6
101 13 115 15 60 11 491 -3 600 -19z m270 -604 c0 -5 -26 -12 -57 -16 -187
-23 -345 -130 -424 -287 -76 -150 -89 -317 -88 -1143 0 -713 7 -881 43 -984
72 -211 248 -350 489 -386 26 -4 47 -10 47 -14 0 -3 -382 -6 -850 -6 -467 0
-850 3 -850 7 0 4 17 10 38 14 197 34 288 73 380 163 44 42 72 80 97 132 70
150 67 114 72 937 3 452 1 748 -4 753 -6 6 -27 -13 -56 -48 -25 -32 -58 -71
-72 -88 -15 -16 -48 -55 -73 -85 -26 -30 -63 -73 -82 -95 -20 -22 -58 -67 -85
-100 -63 -75 -72 -86 -186 -219 -52 -60 -132 -155 -179 -211 -160 -191 -173
-204 -183 -198 -6 4 -7 1 -2 -6 7 -13 -33 -58 -47 -54 -4 2 -5 -3 -2 -10 2 -7
-4 -21 -14 -30 -18 -16 -19 -15 -18 23 1 22 5 40 9 40 17 0 54 35 49 48 -2 6
2 12 10 12 11 0 11 2 0 9 -20 12 -12 87 9 83 13 -2 18 9 21 50 4 39 11 56 27
66 25 17 28 42 4 42 -10 0 -25 5 -33 10 -13 9 -11 13 10 30 30 24 19 26 -15 4
-14 -9 -25 -23 -25 -30 0 -8 -4 -14 -9 -14 -15 0 -62 -50 -56 -60 4 -6 3 -9
-2 -8 -4 2 -9 -1 -10 -7 -2 -5 2 -10 7 -10 6 0 10 -4 9 -10 0 -5 -7 -9 -15 -7
-17 4 -18 -10 -2 -26 10 -10 10 -15 -2 -22 -8 -5 -19 -10 -25 -10 -5 0 -4 4 4
9 13 8 13 12 1 26 -11 14 -11 18 -1 25 8 4 11 13 7 18 -7 11 4 26 72 100 19
20 41 47 50 60 8 13 21 21 28 18 8 -3 11 0 8 8 -3 8 24 47 60 87 35 41 124
144 197 229 73 85 152 175 175 200 23 25 57 63 75 85 78 93 247 285 302 343
l59 63 -6 48 c-21 158 -120 302 -256 371 -42 21 -132 45 -207 55 -153 20 7 25
762 25 466 0 815 -4 815 -9z m-1891 -456 c90 -32 153 -101 171 -191 18 -84
-15 -158 -103 -236 -74 -64 -142 -93 -222 -93 -84 1 -135 24 -189 87 -99 115
-79 280 46 381 75 61 208 84 297 52z m-2144 -702 c-29 -268 -13 -639 40 -941
58 -335 221 -764 412 -1084 272 -453 651 -853 1088 -1145 268 -179 535 -310
830 -406 353 -115 587 -155 960 -164 298 -7 511 9 753 58 30 6 56 9 59 6 2 -3
-22 -10 -54 -17 -32 -6 -93 -20 -136 -30 -43 -11 -88 -20 -101 -20 -12 0 -26
-3 -30 -7 -4 -4 -26 -7 -49 -6 l-42 1 38 -11 c20 -6 37 -15 37 -20 0 -5 -8 -6
-17 -1 -29 12 -103 17 -103 6 0 -11 -25 -10 -36 1 -11 10 -24 9 -24 -3 0 -5 3
-10 8 -9 14 2 52 -13 52 -21 0 -4 -7 -10 -15 -14 -8 -3 -12 -12 -9 -21 3 -8
10 -12 15 -9 5 3 9 1 9 -5 0 -6 6 -8 14 -5 8 3 24 1 35 -5 13 -7 22 -8 26 -1
8 13 135 13 135 1 0 -33 -615 -55 -835 -31 -478 53 -873 175 -1300 401 -335
177 -605 378 -885 658 -208 208 -367 405 -523 646 -42 66 -187 322 -187 332 0
2 -16 38 -35 79 -91 194 -184 468 -235 694 -32 138 -60 305 -60 350 0 24 1 24
14 -5 21 -47 45 -108 50 -130 3 -11 4 -4 2 15 -2 21 4 46 15 65 13 20 17 41
14 65 -5 34 -5 34 7 9 11 -23 15 -24 26 -13 10 11 11 29 4 74 -5 33 -6 60 -3
60 3 0 6 102 7 228 0 154 6 279 19 389 10 90 21 161 23 158 2 -2 -4 -79 -13
-172z m772 -187 c66 -57 14 -166 -78 -166 -33 0 -47 6 -74 33 -31 31 -33 36
-25 73 12 54 50 84 105 84 32 0 52 -7 72 -24z m5408 2 c55 -49 38 -135 -32
-164 -28 -12 -38 -12 -66 -1 -50 21 -67 44 -67 87 0 27 8 48 26 69 22 26 33
31 69 31 31 0 51 -7 70 -22z m-4920 -1299 l66 -96 -35 -104 c-48 -145 -99
-319 -94 -324 2 -3 62 16 134 41 71 25 156 54 188 65 33 11 65 24 71 29 8 7
22 -2 46 -26 19 -20 62 -56 97 -82 34 -25 62 -49 62 -52 0 -18 -15 -17 -40 2
-18 13 -35 18 -49 13 -47 -14 -341 -357 -341 -397 0 -10 11 -36 24 -57 14 -21
22 -41 19 -45 -12 -11 -286 251 -277 266 3 5 21 -3 40 -17 23 -17 41 -24 54
-20 11 3 84 73 162 156 139 145 164 176 156 185 -5 4 -408 -129 -475 -157 -18
-7 -35 -10 -39 -6 -7 7 22 120 85 327 38 127 71 240 71 245 0 18 -31 -5 -102
-72 -112 -108 -200 -213 -217 -258 -12 -33 -11 -41 5 -71 10 -18 15 -36 11
-40 -9 -9 1 -20 -95 109 -45 59 -77 107 -72 107 5 0 24 -9 42 -20 18 -11 39
-20 47 -20 32 0 381 329 381 359 0 6 -7 28 -15 48 -8 19 -15 41 -15 47 1 14
22 -14 105 -135z m4484 64 c78 -86 92 -118 37 -84 -65 40 -150 23 -226 -45
-70 -63 -85 -111 -53 -165 32 -55 71 -47 188 39 128 93 184 122 235 122 135 0
189 -143 114 -298 -34 -70 -129 -167 -206 -211 -55 -31 -70 -52 -48 -66 14 -9
12 -45 -3 -45 -15 0 -190 140 -183 147 2 3 29 -1 58 -7 122 -27 276 52 325
167 19 46 16 86 -8 117 -35 45 -73 36 -179 -40 -153 -110 -243 -137 -320 -95
-41 21 -80 89 -80 137 0 18 9 58 20 88 26 67 130 175 208 213 52 25 61 36 42
48 -12 8 -13 55 -1 55 5 0 41 -35 80 -77z m-3730 -337 c90 -78 257 -184 406
-257 790 -386 1759 -274 2390 277 86 75 101 73 23 -2 -329 -318 -729 -517
-1143 -569 -138 -17 -412 -20 -553 -5 -100 11 -329 65 -430 101 -159 58 -391
187 -547 305 -89 67 -245 211 -245 227 0 6 10 2 23 -9 12 -11 46 -42 76 -68z
m3061 -222 c0 -3 -11 -20 -25 -38 -34 -45 -31 -74 13 -137 21 -30 87 -123 146
-206 l109 -153 38 22 c53 30 119 96 136 138 9 19 16 67 16 107 1 40 4 73 8 73
4 0 12 -14 19 -30 7 -17 28 -56 47 -87 18 -31 31 -58 28 -61 -2 -3 -25 -19
-50 -36 -52 -35 -263 -186 -369 -263 -39 -28 -73 -49 -75 -47 -2 2 11 20 28
40 25 28 31 42 26 62 -9 35 -219 350 -260 389 -31 29 -36 31 -70 22 -64 -18
-58 -5 27 56 45 33 106 81 135 107 48 43 73 58 73 42z m-3119 -184 c42 -30
102 -72 134 -94 31 -21 54 -41 51 -44 -3 -3 -25 1 -47 8 l-42 14 -39 -43 c-46
-53 -196 -275 -234 -349 l-27 -52 31 -40 c28 -34 40 -60 28 -60 -2 0 -66 41
-141 91 -75 49 -143 93 -151 96 -8 3 -14 11 -14 19 0 10 9 10 46 -4 l46 -17
40 45 c47 53 247 352 262 392 9 24 7 31 -17 56 -28 29 -37 60 -14 46 6 -5 46
-33 88 -64z m2775 -155 c13 -32 31 -67 41 -77 28 -31 -5 -21 -59 18 -42 31
-55 36 -89 31 -50 -7 -201 -77 -195 -91 35 -81 74 -165 84 -183 12 -21 12 -21
89 21 81 43 83 45 71 110 -2 10 2 21 7 23 9 3 33 -47 100 -209 8 -21 11 -39 6
-43 -8 -5 -25 16 -77 92 -11 16 -18 15 -89 -7 -42 -13 -78 -27 -81 -31 -7 -11
103 -239 115 -239 21 0 118 42 164 72 54 35 84 84 94 153 10 79 23 66 58 -59
9 -32 13 -62 8 -66 -4 -4 -26 -14 -48 -23 -22 -8 -143 -63 -269 -122 -125 -58
-230 -104 -233 -101 -2 2 12 20 33 38 36 34 37 35 24 73 -16 50 -173 388 -195
422 -15 22 -22 25 -56 20 -51 -7 -60 9 -12 23 21 5 135 57 253 114 118 57 219
103 224 102 4 -1 19 -28 32 -61z m-2209 -137 c26 -12 68 -44 93 -69 44 -44 46
-45 61 -26 35 45 35 9 1 -85 -19 -54 -38 -95 -43 -92 -5 3 -9 27 -9 53 0 102
-87 197 -179 195 -58 -1 -108 -32 -161 -103 -52 -70 -75 -139 -74 -231 0 -86
16 -126 66 -164 84 -63 198 -55 287 20 18 15 34 25 36 23 6 -7 -83 -179 -92
-179 -9 1 -8 17 3 44 7 18 3 19 -53 14 -75 -7 -139 4 -212 38 -262 119 -248
479 22 576 71 25 187 19 254 -14z m1503 -305 c85 -113 178 -230 205 -260 46
-48 54 -53 95 -53 65 0 39 -13 -85 -45 -60 -15 -136 -36 -168 -47 -55 -19 -91
-17 -56 2 68 38 71 57 18 129 -34 47 -25 47 -191 9 -81 -18 -87 -21 -97 -50
-6 -17 -11 -44 -11 -60 0 -25 6 -32 40 -46 66 -28 55 -35 -80 -52 -102 -12
-100 -12 -100 -1 0 5 11 12 25 15 15 4 32 21 45 46 19 37 101 309 159 522 14
54 31 98 36 98 6 0 80 -93 165 -207z m-1055 167 c129 -15 145 -19 145 -29 0
-5 -16 -12 -35 -15 -48 -9 -62 -36 -70 -132 l-7 -82 98 -7 c55 -4 117 -8 139
-9 l39 -1 8 55 c5 30 7 75 6 100 -3 43 -5 46 -45 60 -68 23 -52 34 40 27 45
-4 119 -7 165 -7 86 0 102 -9 52 -30 -16 -7 -34 -17 -39 -24 -12 -15 -40 -277
-43 -411 l-3 -100 38 -18 c20 -10 37 -22 37 -27 0 -8 -185 -2 -280 9 -63 7
-71 23 -15 32 20 3 41 12 45 19 9 15 30 171 30 227 l0 41 -72 7 c-40 4 -102 7
-137 8 l-65 2 -7 -35 c-4 -19 -10 -79 -14 -133 l-6 -98 40 -17 c50 -21 56 -45
9 -37 -18 3 -89 12 -158 20 -69 9 -131 18 -138 20 -22 8 -3 25 28 25 32 0 58
21 65 53 20 98 50 425 41 460 -4 17 -20 34 -44 47 l-37 21 45 -5 c25 -2 90
-10 145 -16z"/>
<path d="M6576 8172 c-15 -30 -159 -391 -170 -428 -6 -18 1 -25 45 -44 71 -30
111 -35 164 -20 59 16 116 73 157 157 27 56 32 77 33 143 0 100 -27 146 -115
190 -75 38 -95 38 -114 2z"/>
<path d="M3994 8093 c-35 -7 -102 -71 -115 -110 -48 -146 104 -404 238 -403
66 1 154 67 170 128 9 37 -13 136 -49 215 -36 79 -106 150 -164 166 -40 11
-43 11 -80 4z"/>
<path d="M3335 7611 c-22 -10 -56 -36 -75 -57 -69 -77 -72 -61 37 -178 l98
-106 47 47 c87 86 96 147 36 237 -16 26 -31 46 -33 46 -1 0 -18 6 -37 14 -30
13 -38 13 -73 -3z"/>
<path d="M5814 2998 c-6 -24 -19 -73 -29 -110 -11 -37 -16 -70 -13 -73 3 -4
35 -1 69 4 35 6 79 14 97 17 17 3 32 9 32 13 0 12 -130 191 -138 191 -4 0 -12
-19 -18 -42z"/>
</g>
</svg>
